<mxfile host="app.diagrams.net" modified="2022-07-27T03:37:51.308Z" agent="5.0 (Windows NT 10.0; Win64; x64) AppleWebKit/537.36 (KHTML, like Gecko) Chrome/90.0.4430.72 Safari/537.36" etag="SMVehRqzYQPRPzW6RnlW" version="19.0.3" type="github">
  <diagram id="aV7yKb-oYIvs3yWfVHRN" name="第 1 页">
    <mxGraphModel dx="1422" dy="762" grid="1" gridSize="10" guides="1" tooltips="1" connect="1" arrows="1" fold="1" page="1" pageScale="1" pageWidth="1169" pageHeight="827" math="0" shadow="0">
      <root>
        <mxCell id="0" />
        <mxCell id="1" parent="0" />
        <mxCell id="Aef8_bQm2GeZmL0EMqKm-12" style="edgeStyle=orthogonalEdgeStyle;rounded=0;orthogonalLoop=1;jettySize=auto;html=1;exitX=0.5;exitY=1;exitDx=0;exitDy=0;entryX=0;entryY=0;entryDx=0;entryDy=0;curved=1;" edge="1" parent="1" source="Aef8_bQm2GeZmL0EMqKm-1" target="Aef8_bQm2GeZmL0EMqKm-11">
          <mxGeometry relative="1" as="geometry" />
        </mxCell>
        <mxCell id="Aef8_bQm2GeZmL0EMqKm-1" value="" style="ellipse;whiteSpace=wrap;html=1;" parent="1" vertex="1">
          <mxGeometry x="9" y="30" width="70" height="50" as="geometry" />
        </mxCell>
        <mxCell id="Aef8_bQm2GeZmL0EMqKm-13" style="edgeStyle=orthogonalEdgeStyle;curved=1;rounded=0;orthogonalLoop=1;jettySize=auto;html=1;entryX=0.5;entryY=0;entryDx=0;entryDy=0;" edge="1" parent="1" source="Aef8_bQm2GeZmL0EMqKm-2" target="Aef8_bQm2GeZmL0EMqKm-11">
          <mxGeometry relative="1" as="geometry" />
        </mxCell>
        <mxCell id="Aef8_bQm2GeZmL0EMqKm-2" value="" style="ellipse;whiteSpace=wrap;html=1;" vertex="1" parent="1">
          <mxGeometry x="100" y="30" width="70" height="50" as="geometry" />
        </mxCell>
        <mxCell id="Aef8_bQm2GeZmL0EMqKm-14" style="edgeStyle=orthogonalEdgeStyle;curved=1;rounded=0;orthogonalLoop=1;jettySize=auto;html=1;entryX=1;entryY=0;entryDx=0;entryDy=0;exitX=0.5;exitY=1;exitDx=0;exitDy=0;" edge="1" parent="1" source="Aef8_bQm2GeZmL0EMqKm-3" target="Aef8_bQm2GeZmL0EMqKm-11">
          <mxGeometry relative="1" as="geometry" />
        </mxCell>
        <mxCell id="Aef8_bQm2GeZmL0EMqKm-3" value="" style="ellipse;whiteSpace=wrap;html=1;" vertex="1" parent="1">
          <mxGeometry x="190" y="30" width="70" height="50" as="geometry" />
        </mxCell>
        <mxCell id="Aef8_bQm2GeZmL0EMqKm-15" style="edgeStyle=orthogonalEdgeStyle;curved=1;rounded=0;orthogonalLoop=1;jettySize=auto;html=1;entryX=1;entryY=0.5;entryDx=0;entryDy=0;exitX=0.5;exitY=1;exitDx=0;exitDy=0;" edge="1" parent="1" source="Aef8_bQm2GeZmL0EMqKm-4" target="Aef8_bQm2GeZmL0EMqKm-11">
          <mxGeometry relative="1" as="geometry" />
        </mxCell>
        <mxCell id="Aef8_bQm2GeZmL0EMqKm-4" value="" style="ellipse;whiteSpace=wrap;html=1;" vertex="1" parent="1">
          <mxGeometry x="280" y="30" width="70" height="50" as="geometry" />
        </mxCell>
        <mxCell id="Aef8_bQm2GeZmL0EMqKm-17" style="edgeStyle=orthogonalEdgeStyle;curved=1;rounded=0;orthogonalLoop=1;jettySize=auto;html=1;entryX=0.5;entryY=0;entryDx=0;entryDy=0;" edge="1" parent="1" source="Aef8_bQm2GeZmL0EMqKm-5" target="Aef8_bQm2GeZmL0EMqKm-16">
          <mxGeometry relative="1" as="geometry" />
        </mxCell>
        <mxCell id="Aef8_bQm2GeZmL0EMqKm-5" value="" style="ellipse;whiteSpace=wrap;html=1;" vertex="1" parent="1">
          <mxGeometry x="370" y="30" width="70" height="50" as="geometry" />
        </mxCell>
        <mxCell id="Aef8_bQm2GeZmL0EMqKm-25" style="edgeStyle=orthogonalEdgeStyle;curved=1;rounded=0;orthogonalLoop=1;jettySize=auto;html=1;entryX=0;entryY=0;entryDx=0;entryDy=0;exitX=0.5;exitY=1;exitDx=0;exitDy=0;" edge="1" parent="1" source="Aef8_bQm2GeZmL0EMqKm-6" target="Aef8_bQm2GeZmL0EMqKm-21">
          <mxGeometry relative="1" as="geometry" />
        </mxCell>
        <mxCell id="Aef8_bQm2GeZmL0EMqKm-6" value="" style="ellipse;whiteSpace=wrap;html=1;" vertex="1" parent="1">
          <mxGeometry x="460" y="30" width="70" height="50" as="geometry" />
        </mxCell>
        <mxCell id="Aef8_bQm2GeZmL0EMqKm-30" style="edgeStyle=orthogonalEdgeStyle;curved=1;rounded=0;orthogonalLoop=1;jettySize=auto;html=1;entryX=0;entryY=0;entryDx=0;entryDy=0;" edge="1" parent="1" source="Aef8_bQm2GeZmL0EMqKm-7" target="Aef8_bQm2GeZmL0EMqKm-23">
          <mxGeometry relative="1" as="geometry" />
        </mxCell>
        <mxCell id="Aef8_bQm2GeZmL0EMqKm-7" value="" style="ellipse;whiteSpace=wrap;html=1;" vertex="1" parent="1">
          <mxGeometry x="910" y="30" width="70" height="50" as="geometry" />
        </mxCell>
        <mxCell id="Aef8_bQm2GeZmL0EMqKm-26" style="edgeStyle=orthogonalEdgeStyle;curved=1;rounded=0;orthogonalLoop=1;jettySize=auto;html=1;" edge="1" parent="1" source="Aef8_bQm2GeZmL0EMqKm-8" target="Aef8_bQm2GeZmL0EMqKm-21">
          <mxGeometry relative="1" as="geometry" />
        </mxCell>
        <mxCell id="Aef8_bQm2GeZmL0EMqKm-8" value="" style="ellipse;whiteSpace=wrap;html=1;" vertex="1" parent="1">
          <mxGeometry x="550" y="30" width="70" height="50" as="geometry" />
        </mxCell>
        <mxCell id="Aef8_bQm2GeZmL0EMqKm-27" style="edgeStyle=orthogonalEdgeStyle;curved=1;rounded=0;orthogonalLoop=1;jettySize=auto;html=1;entryX=1;entryY=0;entryDx=0;entryDy=0;exitX=0.5;exitY=1;exitDx=0;exitDy=0;" edge="1" parent="1" source="Aef8_bQm2GeZmL0EMqKm-9" target="Aef8_bQm2GeZmL0EMqKm-21">
          <mxGeometry relative="1" as="geometry" />
        </mxCell>
        <mxCell id="Aef8_bQm2GeZmL0EMqKm-9" value="" style="ellipse;whiteSpace=wrap;html=1;" vertex="1" parent="1">
          <mxGeometry x="640" y="30" width="70" height="50" as="geometry" />
        </mxCell>
        <mxCell id="Aef8_bQm2GeZmL0EMqKm-28" style="edgeStyle=orthogonalEdgeStyle;curved=1;rounded=0;orthogonalLoop=1;jettySize=auto;html=1;exitX=0.5;exitY=1;exitDx=0;exitDy=0;entryX=0;entryY=0;entryDx=0;entryDy=0;" edge="1" parent="1" source="Aef8_bQm2GeZmL0EMqKm-10" target="Aef8_bQm2GeZmL0EMqKm-22">
          <mxGeometry relative="1" as="geometry" />
        </mxCell>
        <mxCell id="Aef8_bQm2GeZmL0EMqKm-10" value="" style="ellipse;whiteSpace=wrap;html=1;" vertex="1" parent="1">
          <mxGeometry x="730" y="30" width="70" height="50" as="geometry" />
        </mxCell>
        <mxCell id="Aef8_bQm2GeZmL0EMqKm-18" style="edgeStyle=orthogonalEdgeStyle;curved=1;rounded=0;orthogonalLoop=1;jettySize=auto;html=1;exitX=0.5;exitY=1;exitDx=0;exitDy=0;entryX=0;entryY=0;entryDx=0;entryDy=0;" edge="1" parent="1" source="Aef8_bQm2GeZmL0EMqKm-11" target="Aef8_bQm2GeZmL0EMqKm-16">
          <mxGeometry relative="1" as="geometry" />
        </mxCell>
        <mxCell id="Aef8_bQm2GeZmL0EMqKm-11" value="" style="ellipse;whiteSpace=wrap;html=1;" vertex="1" parent="1">
          <mxGeometry x="120" y="160" width="70" height="50" as="geometry" />
        </mxCell>
        <mxCell id="Aef8_bQm2GeZmL0EMqKm-16" value="" style="ellipse;whiteSpace=wrap;html=1;" vertex="1" parent="1">
          <mxGeometry x="420" y="414" width="70" height="50" as="geometry" />
        </mxCell>
        <mxCell id="Aef8_bQm2GeZmL0EMqKm-29" style="edgeStyle=orthogonalEdgeStyle;curved=1;rounded=0;orthogonalLoop=1;jettySize=auto;html=1;entryX=1;entryY=0;entryDx=0;entryDy=0;" edge="1" parent="1" source="Aef8_bQm2GeZmL0EMqKm-19" target="Aef8_bQm2GeZmL0EMqKm-22">
          <mxGeometry relative="1" as="geometry" />
        </mxCell>
        <mxCell id="Aef8_bQm2GeZmL0EMqKm-19" value="" style="ellipse;whiteSpace=wrap;html=1;" vertex="1" parent="1">
          <mxGeometry x="820" y="30" width="70" height="50" as="geometry" />
        </mxCell>
        <mxCell id="Aef8_bQm2GeZmL0EMqKm-31" style="edgeStyle=orthogonalEdgeStyle;curved=1;rounded=0;orthogonalLoop=1;jettySize=auto;html=1;exitX=0.5;exitY=1;exitDx=0;exitDy=0;entryX=1;entryY=0;entryDx=0;entryDy=0;" edge="1" parent="1" source="Aef8_bQm2GeZmL0EMqKm-20" target="Aef8_bQm2GeZmL0EMqKm-23">
          <mxGeometry relative="1" as="geometry" />
        </mxCell>
        <mxCell id="Aef8_bQm2GeZmL0EMqKm-20" value="" style="ellipse;whiteSpace=wrap;html=1;" vertex="1" parent="1">
          <mxGeometry x="1000" y="30" width="70" height="50" as="geometry" />
        </mxCell>
        <mxCell id="Aef8_bQm2GeZmL0EMqKm-34" style="edgeStyle=orthogonalEdgeStyle;curved=1;rounded=0;orthogonalLoop=1;jettySize=auto;html=1;exitX=0.5;exitY=1;exitDx=0;exitDy=0;entryX=0;entryY=0;entryDx=0;entryDy=0;" edge="1" parent="1" source="Aef8_bQm2GeZmL0EMqKm-21" target="Aef8_bQm2GeZmL0EMqKm-24">
          <mxGeometry relative="1" as="geometry" />
        </mxCell>
        <mxCell id="Aef8_bQm2GeZmL0EMqKm-21" value="" style="ellipse;whiteSpace=wrap;html=1;" vertex="1" parent="1">
          <mxGeometry x="550" y="160" width="70" height="50" as="geometry" />
        </mxCell>
        <mxCell id="Aef8_bQm2GeZmL0EMqKm-33" style="edgeStyle=orthogonalEdgeStyle;curved=1;rounded=0;orthogonalLoop=1;jettySize=auto;html=1;exitX=0.5;exitY=1;exitDx=0;exitDy=0;" edge="1" parent="1" source="Aef8_bQm2GeZmL0EMqKm-22" target="Aef8_bQm2GeZmL0EMqKm-24">
          <mxGeometry relative="1" as="geometry" />
        </mxCell>
        <mxCell id="Aef8_bQm2GeZmL0EMqKm-22" value="" style="ellipse;whiteSpace=wrap;html=1;" vertex="1" parent="1">
          <mxGeometry x="780" y="160" width="70" height="50" as="geometry" />
        </mxCell>
        <mxCell id="Aef8_bQm2GeZmL0EMqKm-32" style="edgeStyle=orthogonalEdgeStyle;curved=1;rounded=0;orthogonalLoop=1;jettySize=auto;html=1;exitX=0.5;exitY=1;exitDx=0;exitDy=0;entryX=1;entryY=0;entryDx=0;entryDy=0;" edge="1" parent="1" source="Aef8_bQm2GeZmL0EMqKm-23" target="Aef8_bQm2GeZmL0EMqKm-24">
          <mxGeometry relative="1" as="geometry" />
        </mxCell>
        <mxCell id="Aef8_bQm2GeZmL0EMqKm-23" value="" style="ellipse;whiteSpace=wrap;html=1;" vertex="1" parent="1">
          <mxGeometry x="950" y="160" width="70" height="50" as="geometry" />
        </mxCell>
        <mxCell id="Aef8_bQm2GeZmL0EMqKm-35" style="edgeStyle=orthogonalEdgeStyle;curved=1;rounded=0;orthogonalLoop=1;jettySize=auto;html=1;entryX=1;entryY=0;entryDx=0;entryDy=0;" edge="1" parent="1" source="Aef8_bQm2GeZmL0EMqKm-24" target="Aef8_bQm2GeZmL0EMqKm-16">
          <mxGeometry relative="1" as="geometry" />
        </mxCell>
        <mxCell id="Aef8_bQm2GeZmL0EMqKm-24" value="" style="ellipse;whiteSpace=wrap;html=1;" vertex="1" parent="1">
          <mxGeometry x="700" y="290" width="70" height="50" as="geometry" />
        </mxCell>
      </root>
    </mxGraphModel>
  </diagram>
</mxfile>
